<?xml version="1.0" encoding="utf-8"?>
<!-- Generator: Adobe Illustrator 23.0.0, SVG Export Plug-In . SVG Version: 6.00 Build 0)  -->
<svg version="1.1" id="图层_1" xmlns="http://www.w3.org/2000/svg" xmlns:xlink="http://www.w3.org/1999/xlink" x="0px" y="0px"
	 viewBox="0 0 190 143" style="enable-background:new 0 0 190 143;" xml:space="preserve">
<style type="text/css">
	.st0{fill:#ffffff;}
</style>
<g>
	<path class="st0" d="M135.5,59.3c-1.3,6.9-4.4,11.1-9.4,13.8c-1.3,0.7-2.7,1-4,1.5c-4.5,1.7-8.9,3.3-13.4,5
		c-2.4,0.9-4.9,1.8-7.4,2.7c-3.2,1.2-6.4,2.4-9.7,3.6c-5.3,2-10.7,3.9-16,5.9c-2.4,0.9-4.7,1.9-7.1,2.5c-6,1.3-11.5-0.2-15.9-4.4
		c-4.8-4.5-6.5-10.2-5.1-16.5c1.5-6.9,6.1-11.5,13-13.4c2-0.6,1.9-0.5,1.9-2.5c-0.1-6.3,1.6-12,5.6-16.9c2.8-3.5,6.4-6.2,10.6-7.7
		c9-3.1,17.5-1.8,25,4.3c1.5,1.2,2.8,2.8,4,4.3c0.6,0.7,1.1,0.8,1.9,0.4c2.8-1.7,5.9-2.3,9.1-2.1c6.4,0.4,11.4,3.4,14.6,9
		C135.5,52.3,136.1,56.3,135.5,59.3z"/>
	<path class="st0" d="M139.1,55.8c-0.1-3.6-1.3-6.7-3.1-9.6c-2-3.3-4.8-5.9-8.3-7.7c-4.2-2.2-8.5-2.7-13.1-2.1
		c-1.5,0.2-2.9,0.8-4.4,1.1c-0.4,0.1-1,0.1-1.2-0.1c-3.4-3.8-7.6-6.5-12.4-8.2c-0.2-0.1-0.3-0.2-0.7-0.3c0.3-0.3,0.6-0.5,0.9-0.7
		c8.3-5.1,19.4-3,25.3,4.8c0.7,0.9,1.1,0.9,2.1,0.4c3.5-1.8,7.1-1.9,10.8-0.6c6.7,2.5,10.3,9.5,8.4,16.5
		C142.9,51.3,141.1,54.1,139.1,55.8z"/>
</g>
<g>
	<path class="st0" d="M33.2,122c-0.3,0.2-0.7,0.3-1,0.4c-0.3,0.1-0.7,0.1-1.1,0.1c-0.5,0-1-0.1-1.4-0.3c-0.4-0.2-0.7-0.5-1-0.8
		c-0.3-0.3-0.5-0.7-0.6-1.1c-0.1-0.4-0.2-0.9-0.2-1.3c0-0.6,0.1-1.3,0.4-1.9c0.3-0.6,0.7-1.1,1.1-1.6c0.5-0.5,1-0.9,1.6-1.1
		c0.6-0.3,1.3-0.4,1.9-0.4c0.5,0,1,0.1,1.4,0.3c0.4,0.2,0.7,0.5,1,0.8s0.5,0.7,0.6,1.1c0.1,0.4,0.2,0.9,0.2,1.3c0,0.7-0.2,1.4-0.5,2
		s-0.7,1.2-1.3,1.7l0.9,1.3h-1.9L33.2,122z M31.5,120.7c0.3,0,0.5,0,0.8-0.1l-1-1.5h1.8l0.4,0.6c0.2-0.3,0.4-0.6,0.5-1
		s0.2-0.7,0.2-1.1c0-0.3,0-0.5-0.1-0.8c-0.1-0.2-0.2-0.4-0.3-0.6c-0.1-0.2-0.3-0.3-0.5-0.4c-0.2-0.1-0.4-0.2-0.7-0.2
		c-0.4,0-0.8,0.1-1.1,0.3c-0.3,0.2-0.6,0.4-0.8,0.8c-0.2,0.3-0.4,0.6-0.5,1s-0.2,0.7-0.2,1.1c0,0.3,0,0.5,0.1,0.7
		c0.1,0.2,0.2,0.4,0.3,0.6c0.1,0.2,0.3,0.3,0.5,0.4C31,120.7,31.2,120.7,31.5,120.7z"/>
	<path class="st0" d="M43.8,122.5c-0.5,0-1-0.1-1.3-0.2c-0.4-0.1-0.7-0.4-0.9-0.6c-0.2-0.3-0.4-0.6-0.5-0.9s-0.2-0.7-0.2-1.1
		c0-0.4,0-0.9,0.1-1.3l0.9-4.4h2l-0.9,4.4c-0.1,0.4-0.1,0.7-0.1,1c0,0.2,0,0.4,0.1,0.6s0.1,0.3,0.2,0.5c0.1,0.1,0.2,0.2,0.4,0.3
		c0.2,0.1,0.3,0.1,0.6,0.1c0.3,0,0.6-0.1,0.8-0.2c0.2-0.1,0.4-0.3,0.6-0.6c0.2-0.2,0.3-0.5,0.4-0.8c0.1-0.3,0.2-0.6,0.3-0.9l0.9-4.4
		h2l-0.9,4.4c-0.1,0.6-0.3,1.1-0.6,1.7c-0.3,0.5-0.6,1-0.9,1.3c-0.4,0.4-0.8,0.7-1.3,0.9C45,122.4,44.4,122.5,43.8,122.5z"/>
	<path class="st0" d="M56.7,113.9h1.8l1.1,8.5h-2l-0.2-1.9H55l-1,1.9h-2L56.7,113.9z M57.4,119.1l-0.2-3l-1.6,3H57.4z"/>
	<path class="st0" d="M66.2,113.9h3c0.6,0,1,0.1,1.4,0.3c0.4,0.2,0.8,0.4,1,0.7s0.5,0.6,0.6,1.1c0.1,0.4,0.2,0.8,0.2,1.3
		c0,0.8-0.1,1.4-0.4,2.1c-0.3,0.6-0.6,1.2-1.1,1.6c-0.5,0.5-1,0.8-1.6,1.1c-0.6,0.3-1.3,0.4-2,0.4h-3L66.2,113.9z M67.8,120.7
		c0.4,0,0.8-0.1,1.1-0.3s0.6-0.4,0.8-0.7c0.2-0.3,0.4-0.6,0.5-1s0.2-0.8,0.2-1.2c0-0.6-0.1-1-0.4-1.4c-0.3-0.3-0.7-0.5-1.2-0.5h-1.1
		l-1.1,5.1H67.8z"/>
	<path class="st0" d="M76.7,122.4l1.8-8.5h3.7c0.3,0,0.6,0.1,0.9,0.2c0.3,0.1,0.5,0.3,0.7,0.5c0.2,0.2,0.3,0.5,0.4,0.8
		c0.1,0.3,0.1,0.6,0.1,0.9c0,0.3,0,0.6-0.1,0.9c-0.1,0.3-0.2,0.6-0.4,0.8s-0.4,0.5-0.6,0.7s-0.5,0.4-0.8,0.5l1.1,3.2h-2.2l-0.9-2.7
		h-1.1l-0.6,2.7H76.7z M81.2,117.9c0.1,0,0.2,0,0.4-0.1c0.1-0.1,0.2-0.2,0.3-0.3c0.1-0.1,0.2-0.3,0.2-0.5c0.1-0.2,0.1-0.4,0.1-0.6
		c0-0.3-0.1-0.5-0.2-0.6c-0.1-0.2-0.2-0.2-0.4-0.2h-1.6l-0.5,2.3H81.2z"/>
	<path class="st0" d="M90.3,113.9h5.6l-0.4,1.7h-3.6l-0.3,1.7h3.1l-0.3,1.6h-3.1l-0.4,1.8h3.7l-0.4,1.7h-5.7L90.3,113.9z"/>
	<path class="st0" d="M109.9,122.4v-7l-3.1,5.4h-0.5l-3.1-5.4v7h-0.8v-8.5h0.9l3.3,5.8l3.3-5.8h0.9v8.5H109.9z"/>
	<path class="st0" d="M119.5,113.9h0.7l3.5,8.5h-0.9l-1.1-2.7H118l-1.1,2.7H116L119.5,113.9z M121.6,119.1l-1.7-4.2l-1.7,4.2H121.6z
		"/>
	<path class="st0" d="M129,122.4v-8.5h0.8v4.9l4.7-5h0.9l-3.5,3.7l3.7,4.8h-0.9l-3.3-4.3l-1.6,1.7v2.6H129z"/>
	<path class="st0" d="M146.4,121.7v0.7h-5.7v-8.5h5.6v0.7h-4.8v3.1h4.2v0.7h-4.2v3.3H146.4z"/>
	<path class="st0" d="M152,122.4v-8.5h3.6c0.4,0,0.7,0.1,1,0.2c0.3,0.2,0.6,0.4,0.8,0.6s0.4,0.5,0.5,0.9s0.2,0.6,0.2,1
		c0,0.3,0,0.6-0.1,0.9c-0.1,0.3-0.2,0.5-0.4,0.8s-0.4,0.4-0.6,0.6c-0.2,0.2-0.5,0.3-0.8,0.3l2.1,3.3h-0.9l-2-3.1h-2.5v3.1H152z
		 M152.9,118.5h2.8c0.2,0,0.5-0.1,0.7-0.2c0.2-0.1,0.4-0.3,0.5-0.4s0.3-0.4,0.3-0.6s0.1-0.5,0.1-0.7c0-0.3,0-0.5-0.1-0.7
		c-0.1-0.2-0.2-0.4-0.4-0.6c-0.2-0.2-0.3-0.3-0.6-0.4c-0.2-0.1-0.4-0.2-0.7-0.2h-2.7V118.5z"/>
	<path class="st0" d="M164.4,114.4h-1.1v2.9h-0.6v-2.9h-1.1v-0.6h2.9V114.4z M167.8,113.9h0.8v3.4H168v-2.6l-1,2.1h-0.5l-1-2.1v2.6
		h-0.6v-3.4h0.8l1,2.2L167.8,113.9z"/>
</g>
</svg>
